<svg width="104" height="30" viewBox="0 0 104 30" fill="none" xmlns="http://www.w3.org/2000/svg">
<path d="M32.4806 21.2841C32.0022 21.9114 31.743 22.6784 31.743 23.4673V30.0001H23.2866V20.4065L33.5903 6.54937H43.7186L32.4806 21.2841Z" fill="white" fill-opacity="0.5"/>
<path d="M20.8386 18.01C20.3602 18.6372 20.1011 19.4043 20.1011 20.1932V26.726H11.6446V17.1324L21.9483 3.27525H32.0766L20.8386 18.01Z" fill="white" fill-opacity="0.5"/>
<path d="M9.19397 14.7347C8.71556 15.362 8.45643 16.129 8.45643 16.9179V23.4507H0V13.8572L10.3037 0H20.432L9.19397 14.7347Z" fill="white" fill-opacity="0.5"/>
<path d="M49.8226 13.0001V1.33605H52.3186V5.89605H57.5346V1.33605H60.0146V13.0001H57.5346V7.89605H52.3186V13.0001H49.8226Z" fill="white" fill-opacity="0.5"/>
<path d="M67.6433 0.216054L66.2353 2.60005H64.4433L64.9553 0.152054H67.6433V0.216054ZM63.9793 13.1601C62.1873 13.1601 61.0193 12.1681 61.0193 10.6481C61.0193 9.14405 61.9313 8.16805 63.8673 7.86405L65.8353 7.52805C66.6193 7.40005 66.8593 7.06405 66.8593 6.56805C66.8593 5.83205 66.4273 5.41605 65.3233 5.41605C64.1713 5.40005 63.4513 5.89605 63.4673 6.90405L61.2113 6.68005C61.3713 4.87205 62.8113 3.65605 65.4673 3.65605C67.9633 3.65605 69.3713 4.58405 69.3713 6.44005V9.78405C69.3713 11.2401 69.4193 12.5041 69.6113 13.0001H67.1473C67.0833 12.6961 67.0193 12.2641 67.0033 11.8641C66.4753 12.6641 65.2913 13.1601 63.9793 13.1601ZM64.8913 11.4961C65.9633 11.4961 66.7793 10.9681 66.9393 10.1521V8.58405C66.7473 8.76005 66.3953 8.88805 65.8353 9.00005L64.7793 9.19205C63.8513 9.36805 63.4833 9.80005 63.4993 10.3921C63.4993 11.0961 63.9793 11.4961 64.8913 11.4961Z" fill="white" fill-opacity="0.5"/>
<path d="M70.6781 13.0001V0.360054H73.1261V5.09605C73.6701 4.13605 74.6781 3.65605 75.8941 3.65605C78.3421 3.65605 79.9101 5.51205 79.9101 8.44005C79.9101 11.3361 78.3901 13.1601 75.9581 13.1601C74.6781 13.1601 73.5581 12.6001 73.0781 11.6241L72.9341 13.0001H70.6781ZM73.1261 8.82405C73.1261 10.3441 73.9421 11.2561 75.2861 11.2561C76.6461 11.2561 77.4141 10.2481 77.4141 8.44005C77.4141 6.58405 76.6621 5.56005 75.2861 5.56005C73.9101 5.56005 73.1261 6.50405 73.1261 8.08805V8.82405Z" fill="white" fill-opacity="0.5"/>
<path d="M80.7956 2.60005V0.360054H83.2436V2.60005H80.7956ZM80.7956 13.0001V3.81605H83.2436V13.0001H80.7956Z" fill="white" fill-opacity="0.5"/>
<path d="M87.881 13.1121C86.121 13.1121 85.321 12.4721 85.321 11.0321V5.59205H83.993V3.81605H85.321V1.41605H87.769V3.81605H89.433V5.59205H87.769V10.3601C87.769 11.0481 87.929 11.2081 88.617 11.2081C88.905 11.2081 89.193 11.1761 89.385 11.0961V12.9361C88.937 13.0481 88.329 13.1121 87.881 13.1121Z" fill="white" fill-opacity="0.5"/>
<path d="M92.8555 13.1601C91.0635 13.1601 89.8955 12.1681 89.8955 10.6481C89.8955 9.14405 90.8075 8.16805 92.7435 7.86405L94.7115 7.52805C95.4955 7.40005 95.7355 7.06405 95.7355 6.56805C95.7355 5.83205 95.3035 5.41605 94.1995 5.41605C93.0475 5.40005 92.3275 5.89605 92.3435 6.90405L90.0875 6.68005C90.2475 4.87205 91.6875 3.65605 94.3435 3.65605C96.8395 3.65605 98.2475 4.58405 98.2475 6.44005V9.78405C98.2475 11.2401 98.2955 12.5041 98.4875 13.0001H96.0235C95.9595 12.6961 95.8955 12.2641 95.8795 11.8641C95.3515 12.6641 94.1675 13.1601 92.8555 13.1601ZM93.7675 11.4961C94.8395 11.4961 95.6555 10.9681 95.8155 10.1521V8.58405C95.6235 8.76005 95.2715 8.88805 94.7115 9.00005L93.6555 9.19205C92.7275 9.36805 92.3595 9.80005 92.3755 10.3921C92.3755 11.0961 92.8555 11.4961 93.7675 11.4961Z" fill="white" fill-opacity="0.5"/>
<path d="M49.8226 24.9041V22.8081H61.6306V24.9041H49.8226Z" fill="white" fill-opacity="0.5"/>
<path d="M66.1726 29.1601C63.3886 29.1601 61.8206 27.7201 61.7086 25.5601L64.0766 25.2241C64.1086 26.5041 64.9246 27.2081 66.2046 27.2081C67.4526 27.2081 68.2206 26.5201 68.2206 25.4961C68.2206 24.4721 67.4686 23.9281 66.3806 23.9281H64.9086V22.2001H66.1566C67.2446 22.2001 67.9806 21.5921 67.9806 20.6641C67.9806 19.7041 67.2446 19.1121 66.1886 19.1121C65.0686 19.1121 64.3166 19.8001 64.2366 20.9521L62.0446 20.6801C62.2046 18.5681 63.9006 17.1761 66.3486 17.1761C68.4766 17.1761 70.3966 18.2321 70.3966 20.3281C70.3966 21.6081 69.6126 22.5361 68.4766 22.9361C69.8686 23.3201 70.7006 24.2961 70.7006 25.7361C70.7006 27.7521 68.9566 29.1601 66.1726 29.1601Z" fill="white" fill-opacity="0.5"/>
<path d="M76.1741 29.1441C72.9901 29.1441 71.4221 26.8081 71.4221 23.2401C71.4221 19.2241 73.3421 17.1921 76.2541 17.1921C78.5741 17.1921 80.1901 18.3761 80.4141 20.3601L78.1421 20.6321C78.0141 19.6721 77.3421 19.1441 76.3021 19.1441C74.4781 19.1441 73.7421 20.7921 73.8541 23.1601C74.3181 22.1201 75.5021 21.6081 76.7021 21.6081C78.8781 21.6081 80.5581 23.0481 80.5581 25.2881C80.5581 27.5441 78.7981 29.1441 76.1741 29.1441ZM76.1741 27.1281C77.3261 27.1281 78.0941 26.3761 78.0941 25.2401C78.0941 24.1041 77.3101 23.3521 76.1741 23.3521C75.0221 23.3521 74.2381 24.1201 74.2381 25.2561C74.2381 26.3761 75.0061 27.1281 76.1741 27.1281Z" fill="white" fill-opacity="0.5"/>
<path d="M85.85 29.1441C83.002 29.1441 81.258 26.8881 81.258 23.1601C81.258 19.4321 83.002 17.1761 85.85 17.1761C88.666 17.1761 90.426 19.4321 90.426 23.1601C90.426 26.8881 88.666 29.1441 85.85 29.1441ZM85.834 27.1121C87.21 27.1121 87.866 25.8321 87.866 23.1601C87.866 20.4881 87.21 19.2081 85.834 19.2081C84.458 19.2081 83.818 20.4721 83.818 23.1601C83.818 25.8321 84.458 27.1121 85.834 27.1121Z" fill="white" fill-opacity="0.5"/>
<path d="M92.8628 22.5361V18.6161H91.3588V17.3361H95.8708V18.6161H94.3508V22.5361H92.8628ZM96.5108 22.5361V17.3361H98.9428L99.5668 19.4641C99.6628 19.8001 99.7428 20.1361 99.7908 20.5681C99.8388 20.1521 99.9188 19.8001 100.031 19.4481L100.655 17.3361H103.071V22.5361H101.599V20.1521C101.599 19.3841 101.599 18.7281 101.647 18.3761C101.535 18.8401 101.375 19.4321 101.199 19.9441L100.367 22.5361H99.1988L98.3828 19.9921C98.2388 19.4961 98.0628 18.9201 97.9348 18.3761C97.9828 18.7121 97.9828 19.3841 97.9988 20.2321V22.5361H96.5108Z" fill="white" fill-opacity="0.5"/>
</svg>
