<svg width="20" height="22" viewBox="0 0 20 22" fill="none" xmlns="http://www.w3.org/2000/svg">
<path d="M18.2332 4.15002C18.2332 5.94495 14.353 7.40002 9.56657 7.40002C4.7801 7.40002 0.899902 5.94495 0.899902 4.15002M18.2332 4.15002C18.2332 2.3551 14.353 0.900024 9.56657 0.900024C4.7801 0.900024 0.899902 2.3551 0.899902 4.15002M18.2332 4.15002V10.65M0.899902 4.15002V10.65M0.899902 10.65C0.899902 11.512 1.813 12.3386 3.43831 12.9481C5.06363 13.5576 7.26803 13.9 9.56657 13.9C11.8651 13.9 14.0695 13.5576 15.6948 12.9481C17.3201 12.3386 18.2332 11.512 18.2332 10.65M0.899902 10.65V17.15C0.899902 18.012 1.813 18.8386 3.43831 19.4481C5.06363 20.0576 7.26803 20.4 9.56657 20.4C11.8651 20.4 14.0695 20.0576 15.6948 19.4481C17.3201 18.8386 18.2332 18.012 18.2332 17.15V10.65" stroke="#1A1A1A" stroke-width="1.8" stroke-linecap="round" stroke-linejoin="round"/>
</svg>
