<svg width="10" height="10" viewBox="0 0 10 10" fill="none" xmlns="http://www.w3.org/2000/svg">
<path d="M0.658125 0.834188C0.658125 0.612947 0.746012 0.400769 0.902453 0.244328C1.05889 0.0878875 1.27107 0 1.49231 0H9.16581C9.38705 0 9.59923 0.0878875 9.75567 0.244328C9.91211 0.400769 10 0.612947 10 0.834188V8.50769C10 8.72893 9.91211 8.94111 9.75567 9.09755C9.59923 9.25399 9.38705 9.34188 9.16581 9.34188C8.94457 9.34188 8.73239 9.25399 8.57595 9.09755C8.41951 8.94111 8.33162 8.72893 8.33162 8.50769V2.84792L1.41371 9.76583C1.25638 9.91779 1.04566 10.0019 0.826939 9.99997C0.608218 9.99807 0.398993 9.91034 0.244328 9.75567C0.089663 9.60101 0.00193216 9.39178 3.15343e-05 9.17306C-0.00186909 8.95434 0.0822127 8.74362 0.234167 8.58629L7.15208 1.66838H1.49231C1.27107 1.66838 1.05889 1.58049 0.902453 1.42405C0.746012 1.26761 0.658125 1.05543 0.658125 0.834188Z" fill="white"/>
</svg>
