<svg width="153" height="155" viewBox="0 0 153 155" fill="none" xmlns="http://www.w3.org/2000/svg">
<path d="M152.707 148.102C153.098 147.712 153.098 147.079 152.707 146.688L146.343 140.324C145.953 139.934 145.319 139.934 144.929 140.324C144.538 140.715 144.538 141.348 144.929 141.738L150.586 147.395L144.929 153.052C144.538 153.443 144.538 154.076 144.929 154.466C145.319 154.857 145.953 154.857 146.343 154.466L152.707 148.102ZM152.707 8.07112C153.098 7.6806 153.098 7.04743 152.707 6.65691L146.343 0.292946C145.953 -0.0975785 145.319 -0.0975785 144.929 0.292946C144.538 0.68347 144.538 1.31664 144.929 1.70716L150.586 7.36401L144.929 13.0209C144.538 13.4114 144.538 14.0446 144.929 14.4351C145.319 14.8256 145.953 14.8256 146.343 14.4351L152.707 8.07112ZM0 77.3953V78.3953H44.9375V77.3953V76.3953H0V77.3953ZM114.938 147.395V148.395H152V147.395V146.395H114.938V147.395ZM79.9375 112.395H78.9375C78.9375 132.278 95.0553 148.395 114.938 148.395V147.395V146.395C96.1598 146.395 80.9375 131.173 80.9375 112.395H79.9375ZM44.9375 77.3953V78.3953C63.7152 78.3953 78.9375 93.6176 78.9375 112.395H79.9375H80.9375C80.9375 92.513 64.8197 76.3953 44.9375 76.3953V77.3953ZM0 77.364V78.364H44.9375V77.364V76.364H0V77.364ZM114.938 7.36401V8.36401H152V7.36401V6.36401H114.938V7.36401ZM79.9375 42.364H80.9375C80.9375 23.5863 96.1598 8.36401 114.938 8.36401V7.36401V6.36401C95.0553 6.36401 78.9375 22.4818 78.9375 42.364H79.9375ZM44.9375 77.364V78.364C64.8197 78.364 80.9375 62.2463 80.9375 42.364H79.9375H78.9375C78.9375 61.1417 63.7152 76.364 44.9375 76.364V77.364Z" fill="url(#paint0_linear_525_194)"/>
<defs>
<linearGradient id="paint0_linear_525_194" x1="0" y1="37.3328" x2="152" y2="37.3328" gradientUnits="userSpaceOnUse">
<stop stop-color="#D3D7D6" stop-opacity="0"/>
<stop offset="1" stop-color="#D3D7D6"/>
</linearGradient>
</defs>
</svg>
