<svg width="10" height="10" viewBox="0 0 10 10" fill="none" xmlns="http://www.w3.org/2000/svg">
<path d="M1.65812 0.834188C1.65812 0.612947 1.74601 0.400769 1.90245 0.244328C2.05889 0.0878875 2.27107 0 2.49231 0H9.16581C9.38705 0 9.59923 0.0878875 9.75567 0.244328C9.91211 0.400769 10 0.612947 10 0.834188V7.50769C10 7.72893 9.91211 7.94111 9.75567 8.09755C9.59923 8.25399 9.38705 8.34188 9.16581 8.34188C8.94457 8.34188 8.73239 8.25399 8.57595 8.09755C8.41951 7.94111 8.33162 7.72893 8.33162 7.50769V2.84792L1.41371 9.76583C1.25638 9.91779 1.04566 10.0019 0.826939 9.99997C0.608218 9.99807 0.398993 9.91034 0.244328 9.75567C0.089663 9.60101 0.00193216 9.39178 3.15343e-05 9.17306C-0.00186909 8.95434 0.0822127 8.74362 0.234167 8.58629L7.15208 1.66838H2.49231C2.27107 1.66838 2.05889 1.58049 1.90245 1.42405C1.74601 1.26761 1.65812 1.05543 1.65812 0.834188Z" fill="white"/>
</svg>
