<svg width="230" height="100" viewBox="0 0 230 100" fill="none" xmlns="http://www.w3.org/2000/svg">
<path d="M65.1992 64.8139C66.8342 64.8139 68.4492 64.9853 70.0411 65.3294C71.6336 65.6736 73.0547 66.2339 74.3028 67.0083C75.5942 67.7833 76.6286 68.7958 77.4033 70.0439C78.1778 71.2489 78.5644 72.7339 78.5644 74.4981V91.6722C78.5644 92.5758 78.6722 93.2217 78.8872 93.6089C79.1456 93.9961 79.6203 94.1894 80.3086 94.1894H81.0819C81.2414 94.1894 81.4136 94.1783 81.5972 94.1542C81.8647 94.1192 82.1147 94.3161 82.1153 94.5856V98.8553C82.1153 99.0367 82 99.2006 81.825 99.2486C81.6156 99.3055 81.3667 99.3625 81.0819 99.4194C80.6947 99.5486 80.2858 99.6564 79.8556 99.7422C79.4253 99.8283 78.9947 99.8919 78.5644 99.935C78.1342 99.9781 77.7672 100 77.4658 100C75.96 100 74.712 99.6989 73.7222 99.0967C72.7325 98.4942 72.0869 97.4397 71.7856 95.9336C70.3222 97.3536 68.5144 98.3861 66.3628 99.0317C64.2542 99.6772 62.2092 100 60.2294 100C58.7231 100 57.28 99.7847 55.9028 99.3544C54.5258 98.9669 53.3003 98.3847 52.2244 97.61C51.1914 96.7922 50.35 95.7825 49.7044 94.5775C49.1017 93.3292 48.8011 91.8861 48.8011 90.2505C48.8011 88.185 49.1681 86.5069 49.8997 85.2158C50.6744 83.9247 51.6647 82.9122 52.87 82.1805C54.1178 81.4492 55.4953 80.9328 57.0014 80.6314C58.5503 80.2872 60.0992 80.0278 61.6483 79.8556C62.9825 79.5975 64.2544 79.4264 65.4594 79.3403C66.6642 79.2111 67.7189 79.0181 68.6225 78.7597C69.5692 78.5014 70.3006 78.1125 70.8169 77.5961C71.3761 77.0364 71.6553 76.2194 71.6553 75.1439C71.6553 74.1969 71.4206 73.4217 70.9472 72.8189C70.517 72.2164 69.9567 71.7639 69.2681 71.4628C68.6228 71.1186 67.8908 70.9033 67.0736 70.8169C66.2561 70.6881 65.4803 70.6244 64.7489 70.6244C62.6833 70.6244 60.9831 71.0553 59.6489 71.9156C58.4103 72.7147 57.6725 73.9219 57.4356 75.5372C57.4039 75.7525 57.2217 75.9197 57.0042 75.9197H50.4775C50.2347 75.9197 50.0389 75.7139 50.0597 75.4719C50.2303 73.5183 50.7383 71.8803 51.5789 70.5594C52.4825 69.1394 53.6225 67.9992 54.9995 67.1386C56.4197 66.2778 58.0119 65.6736 59.7764 65.3294C61.5408 64.985 63.3486 64.8139 65.1992 64.8139ZM146.159 64.8139C147.794 64.8139 149.409 64.985 151.001 65.3294C152.593 65.6736 154.014 66.2339 155.263 67.0083C156.554 67.7831 157.586 68.7958 158.361 70.0439C159.135 71.2492 159.524 72.7336 159.524 74.4981V91.6722C159.524 92.5758 159.632 93.2217 159.847 93.6089C160.105 93.9958 160.578 94.1892 161.266 94.1894H162.042C162.201 94.1894 162.373 94.1783 162.557 94.1542C162.824 94.1192 163.074 94.3161 163.075 94.5856V98.8553C163.075 99.0369 162.958 99.2008 162.782 99.2486C162.573 99.3055 162.326 99.3625 162.042 99.4194C161.654 99.5486 161.246 99.6561 160.816 99.7422C160.385 99.8283 159.954 99.8919 159.524 99.935C159.094 99.9781 158.727 100 158.426 100C156.92 100 155.672 99.6989 154.682 99.0967C153.693 98.4942 153.047 97.4394 152.745 95.9336C151.282 97.3536 149.474 98.3861 147.323 99.0317C145.214 99.6772 143.169 100 141.189 100C139.683 100 138.24 99.7847 136.863 99.3544C135.485 98.9669 134.257 98.3847 133.181 97.61C132.149 96.7925 131.309 95.7819 130.664 94.5775C130.061 93.3292 129.761 91.8861 129.761 90.2505C129.761 88.185 130.128 86.5069 130.859 85.2158C131.634 83.925 132.622 82.9122 133.827 82.1805C135.075 81.4489 136.455 80.9328 137.961 80.6314C139.51 80.2872 141.059 80.0278 142.608 79.8556C143.942 79.5975 145.212 79.4264 146.417 79.3403C147.622 79.2111 148.678 79.0181 149.582 78.7597C150.529 78.5014 151.261 78.1125 151.777 77.5961C152.336 77.0364 152.615 76.2194 152.615 75.1439C152.615 74.1969 152.378 73.4217 151.904 72.8189C151.474 72.2169 150.916 71.7639 150.228 71.4628C149.582 71.1183 148.848 70.9031 148.031 70.8169C147.214 70.6881 146.439 70.6244 145.709 70.6244C143.643 70.6244 141.94 71.055 140.606 71.9156C139.368 72.7147 138.629 73.9222 138.393 75.5372C138.361 75.7525 138.181 75.9194 137.964 75.9197H131.434C131.192 75.9189 130.999 75.7133 131.019 75.4719C131.19 73.5186 131.695 71.8803 132.536 70.5594C133.44 69.1389 134.582 67.9994 135.959 67.1386C137.379 66.2778 138.972 65.6736 140.736 65.3294C142.501 64.985 144.308 64.8139 146.159 64.8139ZM214.861 52.9975C215.094 52.9975 215.283 53.1875 215.283 53.4206V98.6736C215.283 98.9064 215.092 99.0967 214.861 99.0967H208.733C208.5 99.0967 208.308 98.9064 208.308 98.6736V94.5775H208.181C207.192 96.5139 205.747 97.9131 203.855 98.7739C201.961 99.5914 199.96 100 197.852 100C195.226 100 192.922 99.5475 190.943 98.6436C189.006 97.6969 187.391 96.4275 186.1 94.835C184.809 93.2425 183.841 91.3692 183.195 89.2172C182.549 87.0222 182.227 84.6767 182.227 82.1805C182.227 79.1675 182.635 76.563 183.453 74.368C184.27 72.173 185.347 70.3655 186.681 68.9453C188.058 67.525 189.609 66.4903 191.33 65.8447C193.094 65.1564 194.881 64.8139 196.688 64.8139C197.721 64.8139 198.775 64.9217 199.851 65.1367C200.927 65.3089 201.961 65.6097 202.951 66.04C203.941 66.4703 204.844 67.0308 205.661 67.7192C206.522 68.3647 207.233 69.1378 207.794 70.0411H207.922V53.4206C207.922 53.1878 208.111 52.9975 208.344 52.9975H214.861ZM18.3594 0.0488334C19.7575 0.0492779 20.8903 1.18422 20.8903 2.58247V35.9211C20.8903 36.4944 20.6961 37.0214 20.375 37.4458L33.0214 28.9822C34.1825 28.2047 35.7556 28.5139 36.5342 29.6739L45.1064 42.4453C45.8856 43.6061 45.5756 45.1786 44.4147 45.9581L22.3878 60.7394C22.1594 60.855 21.9525 61.0042 21.7719 61.1789C21.4519 61.45 21.2081 61.8044 21.0503 62.1961C20.9303 62.4944 20.8606 62.8078 20.8606 63.1294V97.4447C20.8597 98.8422 19.7272 99.975 18.3294 99.9755H2.56361C1.16528 99.9755 0.0305562 98.8425 0.0297229 97.4447V62.1692L0.0624975 62.1364C0.043053 61.1614 0.0861125 60.1603 0.198057 59.1444C0.860557 53.1397 3.22445 48.6292 6.56195 46.6958L18.997 38.3681C18.7928 38.4211 18.58 38.4547 18.3594 38.455H2.53083C1.13306 38.4542 0 37.3192 0 35.9211V2.58247C0 1.18439 1.13306 0.0495279 2.53083 0.0488334H18.3594ZM88.3544 65.7172C88.5456 65.7178 88.7128 65.8469 88.7614 66.0319L95.1822 90.5761C95.1919 90.6128 95.2258 90.6383 95.2636 90.6386C95.3017 90.6386 95.3356 90.6128 95.345 90.5761L101.511 66.0372C101.558 65.8497 101.727 65.7172 101.921 65.7172H108.683C108.878 65.7172 109.047 65.8508 109.093 66.04L115.004 90.5733C115.013 90.6105 115.047 90.6383 115.085 90.6386C115.123 90.6386 115.157 90.6125 115.167 90.5761L121.842 66.0292C121.892 65.8456 122.062 65.7172 122.252 65.7172H128.844C129.128 65.7178 129.33 65.9939 129.245 66.2653L119.051 98.8011C118.996 98.9761 118.833 99.0961 118.65 99.0967H111.735C111.542 99.0967 111.373 98.9642 111.325 98.7767L105.222 74.368C105.213 74.3314 105.181 74.3033 105.143 74.3028C105.105 74.3028 105.071 74.3311 105.062 74.368L99.0233 98.7739C98.9769 98.9622 98.8078 99.0967 98.6139 99.0967H91.5095C91.3245 99.0967 91.1597 98.975 91.1053 98.7983L81.0358 66.2653C80.9517 65.9936 81.1556 65.7172 81.44 65.7172H88.3544ZM179.026 64.9278C179.412 64.6672 179.936 64.7675 180.198 65.1531L183.241 69.6586C183.502 70.045 183.399 70.5697 183.013 70.8306L180.493 72.5314C180.443 72.5742 180.395 72.6239 180.339 72.6617L173.302 77.3817C173 77.5847 172.776 77.8786 172.597 78.1955C172.588 78.2108 172.578 78.2264 172.569 78.2417C172.363 78.5967 172.212 78.9894 172.211 79.4V98.5894C172.211 98.8219 172.021 99.0125 171.788 99.0125H165.248C165.016 99.0125 164.826 98.8217 164.825 98.5894V78.7544C164.825 78.6375 164.852 78.5181 164.841 78.4017C164.831 78.2981 164.825 78.1931 164.825 78.0869V76.3997C164.825 75.0122 165.614 73.8092 166.767 73.2122L176.326 66.7019C176.435 66.6281 176.549 66.5678 176.666 66.5203L179.026 64.9278ZM71.205 82.3758C70.0861 83.1072 68.7086 83.5572 67.0736 83.7294C65.4383 83.8586 63.8017 84.0739 62.1664 84.375C61.3917 84.5042 60.6383 84.7 59.9067 84.9583C59.175 85.1733 58.5294 85.4961 57.9697 85.9267C57.4103 86.3139 56.9578 86.8519 56.6136 87.5406C56.3125 88.1861 56.1606 88.9817 56.1606 89.9278C56.1606 90.7456 56.3978 91.4353 56.8711 91.995C57.3447 92.5544 57.9047 93.0069 58.5503 93.3511C59.2389 93.6525 59.9706 93.8678 60.745 93.9969C61.5622 94.1258 62.2942 94.1894 62.9394 94.1894C63.7572 94.1894 64.6403 94.0817 65.587 93.8667C66.5339 93.6514 67.4169 93.2844 68.2347 92.7681C69.0953 92.2517 69.8047 91.6058 70.3642 90.8311C70.9233 90.0136 71.2047 89.025 71.205 87.8636V82.3758ZM151.831 82.5792C150.775 83.1911 149.508 83.5739 148.031 83.7294C146.396 83.8586 144.761 84.0739 143.126 84.375C142.352 84.5042 141.598 84.7 140.866 84.9583C140.135 85.1733 139.489 85.4964 138.929 85.9267C138.37 86.3139 137.917 86.8519 137.573 87.5406C137.272 88.1861 137.12 88.9817 137.12 89.9278C137.12 90.7456 137.358 91.4353 137.831 91.995C138.304 92.5544 138.864 93.0069 139.51 93.3511C140.199 93.6522 140.93 93.8678 141.705 93.9969C142.522 94.1258 143.254 94.1894 143.899 94.1894C144.717 94.1894 145.6 94.0819 146.547 93.8667C147.494 93.6514 148.377 93.2844 149.194 92.7681C150.055 92.2517 150.764 91.6056 151.324 90.8311C151.883 90.0136 152.164 89.025 152.165 87.8636V82.7636C152.164 82.5967 151.976 82.4953 151.831 82.5792ZM198.948 70.6244C197.226 70.6244 195.763 70.9892 194.558 71.7203C193.396 72.4092 192.428 73.3361 191.653 74.4981C190.922 75.6172 190.383 76.9086 190.039 78.3719C189.738 79.7919 189.586 81.255 189.586 82.7608C189.586 84.1814 189.76 85.5803 190.104 86.9575C190.492 88.3347 191.049 89.5625 191.781 90.6386C192.555 91.7144 193.524 92.5756 194.686 93.2211C195.848 93.8667 197.228 94.1894 198.82 94.1894C200.455 94.1894 201.855 93.8444 203.016 93.1558C204.221 92.4672 205.19 91.5622 205.922 90.4433C206.697 89.3244 207.253 88.0764 207.597 86.6997C207.986 85.2794 208.181 83.8364 208.181 82.3731C208.181 78.6719 207.339 75.7881 205.661 73.7222C204.026 71.6569 201.788 70.6244 198.948 70.6244ZM178.166 11.8489C180.275 11.8489 182.212 12.3014 183.976 13.2053C185.741 14.0661 187.098 15.4429 188.045 17.3367H188.173V13.1754C188.173 12.9424 188.363 12.7523 188.596 12.7523H195.112C195.345 12.7525 195.532 12.9425 195.532 13.1754V44.3875C195.532 49.4228 194.113 53.1672 191.273 55.6206C188.476 58.1169 184.428 59.3669 179.134 59.3669C177.456 59.3669 175.756 59.1931 174.034 58.8486C172.356 58.5044 170.805 57.925 169.385 57.1072C168.008 56.2894 166.846 55.2131 165.899 53.8792C165.028 52.6517 164.484 51.1681 164.269 49.4303C164.238 49.1847 164.434 48.9725 164.681 48.9719H171.238C171.437 48.9719 171.609 49.1119 171.658 49.3056C171.879 50.1864 172.219 50.915 172.678 51.4892C173.194 52.135 173.799 52.6289 174.487 52.9731C175.219 53.3603 176.014 53.5978 176.874 53.6839C177.735 53.8131 178.64 53.8792 179.587 53.8792C182.557 53.8792 184.731 53.1453 186.108 51.6819C187.485 50.2186 188.173 48.1097 188.173 45.3558V40.2561H188.045C187.012 42.1067 185.591 43.5472 183.784 44.58C182.019 45.6128 180.104 46.1317 178.038 46.1317C175.37 46.1317 173.088 45.6792 171.194 44.7753C169.344 43.8286 167.793 42.5592 166.545 40.9667C165.339 39.3311 164.457 37.4578 163.897 35.3489C163.338 33.24 163.059 30.98 163.059 28.57C163.059 26.3319 163.404 24.2017 164.092 22.1789C164.781 20.1558 165.771 18.39 167.063 16.8836C168.354 15.3347 169.924 14.109 171.775 13.2053C173.668 12.3015 175.799 11.849 178.166 11.8489ZM102.021 11.8489C104.646 11.8489 106.992 12.4091 109.057 13.5281C111.166 14.604 112.91 16.0446 114.288 17.8522C115.665 19.6597 116.656 21.7483 117.258 24.1156C117.871 26.3239 118.058 28.6097 117.817 30.9733C117.795 31.1858 117.613 31.345 117.399 31.345H93.24C93.24 32.6361 93.4139 33.8861 93.7581 35.0911C94.1456 36.2961 94.7058 37.3506 95.4372 38.2542C96.1689 39.1578 97.0936 39.8892 98.2122 40.4486C99.3314 40.9653 100.667 41.2244 102.216 41.2244C104.368 41.2244 106.09 40.7719 107.381 39.8681C108.646 38.97 109.603 37.665 110.249 35.9539C110.312 35.7858 110.471 35.6717 110.65 35.6717H116.8C117.068 35.6717 117.269 35.9208 117.204 36.1817C116.805 37.7842 116.178 39.2283 115.321 40.5139C114.374 41.9339 113.234 43.14 111.901 44.1297C110.567 45.0764 109.059 45.7858 107.381 46.2592C105.746 46.7756 104.024 47.035 102.216 47.035C99.5908 47.035 97.265 46.6047 95.242 45.7439C93.2192 44.8831 91.4972 43.6772 90.077 42.1278C88.6997 40.5783 87.6458 38.7269 86.9142 36.575C86.2256 34.4231 85.8806 32.0556 85.8806 29.4733C85.8806 27.1061 86.2475 24.8681 86.9792 22.7594C87.7539 20.6075 88.83 18.7339 90.2072 17.1414C91.6275 15.5063 93.3275 14.2144 95.307 13.2677C97.2867 12.321 99.525 11.849 102.021 11.8489ZM133.637 11.8489C135.358 11.849 136.993 12.0424 138.542 12.4295C140.134 12.7738 141.555 13.3559 142.803 14.1737C144.094 14.9915 145.149 16.0676 145.966 17.4017C146.753 18.5822 147.271 19.9964 147.518 21.6444C147.555 21.8936 147.36 22.1133 147.108 22.1136H140.245C140.044 22.1133 139.872 21.9703 139.825 21.7747C139.445 20.1972 138.652 19.1258 137.446 18.5628C136.198 17.9603 134.755 17.6594 133.119 17.6594C132.603 17.6594 131.979 17.7008 131.247 17.7869C130.559 17.8731 129.891 18.0469 129.245 18.305C128.643 18.5203 128.127 18.8653 127.696 19.3386C127.266 19.7689 127.051 20.3492 127.051 21.0803C127.051 21.9836 127.352 22.7153 127.954 23.2747C128.6 23.8342 129.419 24.3089 130.409 24.6961C131.442 25.0403 132.604 25.3414 133.895 25.5994C135.186 25.8578 136.519 26.1392 137.896 26.4406C139.23 26.7417 140.544 27.1061 141.835 27.5364C143.126 27.9667 144.268 28.5489 145.258 29.2806C146.291 30.0122 147.108 30.9372 147.711 32.0556C148.356 33.1744 148.679 34.5519 148.679 36.1869C148.679 38.1669 148.226 39.8472 147.323 41.2244C146.419 42.6014 145.235 43.7194 143.772 44.58C142.351 45.4408 140.759 46.0672 138.995 46.4544C137.23 46.8419 135.486 47.035 133.765 47.035C131.656 47.035 129.697 46.7978 127.889 46.3244C126.125 45.8511 124.576 45.1414 123.242 44.195C121.951 43.205 120.916 41.9992 120.142 40.5789C119.464 39.2231 119.084 37.6447 118.997 35.8453C118.986 35.6089 119.175 35.4139 119.412 35.4139H125.958C126.174 35.4139 126.356 35.5789 126.386 35.7936C126.656 37.7439 127.46 39.1242 128.795 39.9333C130.215 40.7936 131.916 41.2244 133.895 41.2244C134.583 41.2244 135.359 41.1803 136.22 41.0942C137.123 40.9653 137.962 40.7497 138.737 40.4486C139.511 40.1475 140.135 39.7169 140.609 39.1575C141.125 38.555 141.363 37.7794 141.319 36.8328C141.276 35.8867 140.931 35.1128 140.286 34.5106C139.64 33.9081 138.801 33.4336 137.769 33.0892C136.779 32.7019 135.636 32.3789 134.345 32.1208C133.055 31.8628 131.743 31.5836 130.409 31.2825C129.032 30.9814 127.696 30.6144 126.405 30.1839C125.157 29.7536 124.018 29.1714 122.984 28.4397C121.994 27.7081 121.197 26.7836 120.595 25.6647C119.992 24.5025 119.691 23.0817 119.691 21.4031C119.691 19.5956 120.122 18.0886 120.983 16.8836C121.886 15.6359 123.004 14.6449 124.338 13.9133C125.715 13.1387 127.222 12.6006 128.858 12.2992C130.536 11.998 132.131 11.8489 133.637 11.8489ZM81.6297 0.0325561C81.8628 0.0325561 82.0531 0.222639 82.0531 0.455723V45.7086C82.0525 45.9414 81.8625 46.1289 81.6297 46.1289H75.5019C75.2689 46.1289 75.0792 45.9414 75.0786 45.7086V41.6097H74.9511C73.9614 43.5464 72.5181 44.9453 70.6245 45.8061C68.7311 46.6239 66.73 47.0322 64.6214 47.0322C61.9958 47.0322 59.692 46.5825 57.7122 45.6786C55.7753 44.7319 54.1611 43.46 52.87 41.8675C51.5792 40.275 50.6103 38.4036 49.9647 36.2522C49.3192 34.0572 48.9964 31.7117 48.9964 29.2156C48.9964 26.2028 49.4047 23.5981 50.2225 21.4031C51.04 19.2083 52.1167 17.4006 53.4506 15.9804C54.8278 14.56 56.3783 13.5254 58.1 12.8798C59.8644 12.1914 61.6503 11.8463 63.4575 11.8463C64.4903 11.8463 65.545 11.954 66.6206 12.1691C67.6967 12.3412 68.7311 12.6447 69.7211 13.0751C70.7103 13.5052 71.6139 14.0635 72.4311 14.7515C73.2919 15.3971 74.0039 16.1726 74.5633 17.0764H74.6908V0.455723C74.6908 0.222639 74.8808 0.0325561 75.1139 0.0325561H81.6297ZM158.816 17.1847C159.049 17.1853 159.236 17.3725 159.237 17.6053V45.7086C159.237 45.9414 159.049 46.1314 158.816 46.1317H152.3C152.067 46.1317 151.877 45.9417 151.877 45.7086V17.6053C151.878 17.3722 152.068 17.1847 152.3 17.1847H158.816ZM217.858 11.8489C221.517 11.8491 224.4 12.7954 226.508 14.6891C228.617 16.5829 229.672 19.4247 229.672 23.2122V45.7086C229.672 45.9414 229.483 46.1311 229.25 46.1317H222.736C222.503 46.1317 222.311 45.9417 222.311 45.7086V25.1492C222.225 22.5236 221.667 20.6283 220.633 19.4661C219.6 18.2614 217.986 17.6594 215.792 17.6594C214.542 17.6594 213.425 17.8969 212.436 18.3703C211.444 18.8006 210.603 19.4242 209.914 20.2419C209.228 21.0164 208.689 21.9414 208.3 23.0169C207.914 24.0931 207.719 25.2353 207.719 26.4406V45.7086C207.719 45.9414 207.533 46.1311 207.3 46.1317H200.784C200.551 46.1317 200.361 45.9417 200.361 45.7086V13.1754C200.361 12.9424 200.551 12.7523 200.784 12.7523H206.911C207.144 12.7525 207.333 12.9425 207.333 13.1754V17.6594L207.464 17.7869C208.581 15.937 210.044 14.4958 211.853 13.463C213.658 12.387 215.661 11.8489 217.858 11.8489ZM65.7172 17.6567C63.9961 17.6569 62.5331 18.0239 61.3281 18.7556C60.1664 19.4439 59.1975 20.3689 58.4228 21.5306C57.6914 22.6492 57.1531 23.9414 56.8089 25.4042C56.5075 26.8244 56.3558 28.2894 56.3558 29.7961C56.3558 31.2164 56.5297 32.6153 56.8739 33.9925C57.2611 35.3689 57.8192 36.5953 58.5503 37.6708C59.3247 38.7464 60.2942 39.6078 61.4556 40.2533C62.6178 40.8989 63.9972 41.2217 65.5897 41.2217C67.2247 41.2217 68.6245 40.8794 69.7861 40.1911C70.9911 39.5022 71.96 38.5972 72.6914 37.4783C73.4658 36.3597 74.0236 35.1114 74.3681 33.7347C74.7553 32.3144 74.9511 30.8714 74.9511 29.4081C74.9511 25.7067 74.1097 22.8233 72.4311 20.7575C70.7956 18.6917 68.5578 17.6567 65.7172 17.6567ZM179.199 17.6594C177.564 17.6594 176.187 18.0044 175.068 18.6931C173.949 19.3817 173.044 20.2842 172.355 21.4031C171.666 22.4789 171.173 23.7289 170.871 25.1492C170.57 26.5261 170.418 27.9036 170.418 29.2806C170.418 30.6578 170.592 32.0128 170.936 33.3469C171.281 34.6378 171.797 35.7997 172.485 36.8328C173.217 37.8656 174.119 38.7072 175.195 39.3528C176.314 39.9983 177.65 40.3211 179.199 40.3211C180.834 40.3211 182.212 39.9981 183.331 39.3528C184.493 38.6642 185.42 37.7811 186.108 36.7053C186.84 35.5861 187.356 34.3361 187.657 32.9589C188.001 31.5394 188.173 30.1197 188.173 28.7C188.173 27.2797 188.002 25.9003 187.657 24.5661C187.313 23.2319 186.775 22.0478 186.043 21.015C185.355 19.9822 184.428 19.1653 183.266 18.5628C182.147 17.9606 180.791 17.6594 179.199 17.6594ZM102.021 17.6594C100.73 17.6594 99.5458 17.8969 98.47 18.3703C97.4375 18.8006 96.5344 19.4244 95.76 20.2419C95.0283 21.0167 94.4242 21.9411 93.9508 23.0169C93.5206 24.0928 93.2831 25.255 93.24 26.5028H110.414C110.328 25.3414 110.071 24.2228 109.641 23.1472C109.302 22.2056 108.83 21.3786 108.228 20.6678L107.696 20.0711C107.056 19.3931 106.283 18.8469 105.379 18.4325C104.389 17.9161 103.269 17.6594 102.021 17.6594ZM158.721 0C158.954 0 159.144 0.190083 159.144 0.423166V12.4512C159.144 12.6837 158.954 12.8716 158.721 12.8716H152.393C152.16 12.8716 151.97 12.6837 151.969 12.4512V0.423166C151.969 0.190083 152.159 0 152.393 0H158.721Z" fill="white"/>
</svg>
