<svg width="85" height="12" viewBox="0 0 85 12" fill="none" xmlns="http://www.w3.org/2000/svg">
<path d="M0 11C0 9.55546 0.284523 8.12506 0.837325 6.79048C1.39013 5.4559 2.20038 4.24327 3.22183 3.22183C4.24327 2.20038 5.4559 1.39013 6.79048 0.837325C8.12506 0.284523 9.55546 -6.31429e-08 11 0C12.4445 6.31429e-08 13.8749 0.284524 15.2095 0.837325C16.5441 1.39013 17.7567 2.20038 18.7782 3.22183C19.7996 4.24327 20.6099 5.4559 21.1627 6.79048C21.7155 8.12506 22 9.55546 22 11H20.02C20.02 9.81548 19.7867 8.64255 19.3334 7.5482C18.8801 6.45384 18.2157 5.45948 17.3781 4.6219C16.5405 3.78431 15.5462 3.1199 14.4518 2.66661C13.3574 2.21331 12.1845 1.98 11 1.98C9.81548 1.98 8.64255 2.21331 7.5482 2.66661C6.45384 3.1199 5.45948 3.78431 4.6219 4.6219C3.78431 5.45948 3.1199 6.45384 2.66661 7.5482C2.21331 8.64255 1.98 9.81548 1.98 11H0Z" fill="white"/>
<path d="M27.092 11V0.794H34.372V2.138H28.688V5.246H33.7V6.562H28.688V11H27.092ZM37.4967 11.14C36.6847 11.14 36.0361 10.9393 35.5507 10.538C35.0747 10.1273 34.8367 9.57667 34.8367 8.886C34.8367 8.25133 35.0421 7.73333 35.4527 7.332C35.8634 6.93067 36.4654 6.65533 37.2587 6.506L39.1207 6.184C39.7461 6.06267 40.0587 5.736 40.0587 5.204C40.0587 4.84933 39.9234 4.58333 39.6527 4.406C39.3914 4.21933 38.9901 4.126 38.4487 4.126C37.8141 4.126 37.3334 4.252 37.0067 4.504C36.6894 4.74667 36.5167 5.106 36.4887 5.582L35.0467 5.428C35.1027 4.644 35.4387 4.03267 36.0547 3.594C36.6707 3.146 37.4781 2.922 38.4767 2.922C39.4754 2.922 40.2454 3.11333 40.7867 3.496C41.3374 3.86933 41.6127 4.41067 41.6127 5.12V9.166C41.6127 9.42733 41.6501 9.614 41.7247 9.726C41.7994 9.82867 41.9207 9.88 42.0887 9.88C42.1634 9.88 42.2287 9.87067 42.2847 9.852H42.3547V10.972C42.2521 11.0093 42.1354 11.0373 42.0047 11.056C41.8834 11.0747 41.7527 11.084 41.6127 11.084C41.1927 11.084 40.8661 10.9767 40.6327 10.762C40.3994 10.538 40.2454 10.202 40.1707 9.754H40.3387C40.1054 10.174 39.7274 10.51 39.2047 10.762C38.6914 11.014 38.1221 11.14 37.4967 11.14ZM37.9167 9.95C38.4581 9.95 38.9201 9.84267 39.3027 9.628C39.6947 9.404 39.9561 9.10067 40.0867 8.718V6.87C40.0027 6.96333 39.8767 7.04733 39.7087 7.122C39.5407 7.19667 39.3354 7.25267 39.0927 7.29L37.6647 7.556C37.2541 7.63067 36.9414 7.77533 36.7267 7.99C36.5214 8.19533 36.4187 8.46133 36.4187 8.788C36.4187 9.152 36.5494 9.43667 36.8107 9.642C37.0721 9.84733 37.4407 9.95 37.9167 9.95ZM46.3865 11.14C45.5372 11.14 44.8652 10.902 44.3705 10.426C43.8852 9.95 43.6425 9.306 43.6425 8.494V3.062H45.2105V8.186C45.2105 8.718 45.3552 9.11933 45.6445 9.39C45.9338 9.66067 46.3398 9.796 46.8625 9.796C47.2078 9.796 47.5298 9.72133 47.8285 9.572C48.1272 9.42267 48.3698 9.20333 48.5565 8.914C48.7525 8.62467 48.8505 8.27467 48.8505 7.864V3.062H50.4045V11H48.9765L48.8925 9.81C48.6032 10.258 48.2438 10.594 47.8145 10.818C47.3945 11.0327 46.9185 11.14 46.3865 11.14ZM55.3267 11.14C54.2907 11.14 53.4741 10.9067 52.8767 10.44C52.2887 9.97333 51.9667 9.35267 51.9107 8.578L53.4367 8.41C53.4367 8.89533 53.6094 9.28267 53.9547 9.572C54.3001 9.852 54.7714 9.992 55.3687 9.992C55.8541 9.992 56.2461 9.89867 56.5447 9.712C56.8434 9.516 56.9927 9.22667 56.9927 8.844C56.9927 8.592 56.9274 8.39133 56.7967 8.242C56.6754 8.08333 56.5074 7.962 56.2927 7.878C56.0781 7.794 55.8261 7.724 55.5367 7.668C55.2474 7.612 54.9394 7.54667 54.6127 7.472C54.1274 7.36 53.7074 7.21533 53.3527 7.038C53.0074 6.86067 52.7367 6.62733 52.5407 6.338C52.3541 6.04867 52.2607 5.694 52.2607 5.274C52.2607 4.80733 52.3867 4.40133 52.6387 4.056C52.8907 3.70133 53.2454 3.426 53.7027 3.23C54.1601 3.02467 54.7107 2.922 55.3547 2.922C55.9707 2.922 56.5027 3.02 56.9507 3.216C57.4081 3.412 57.7721 3.692 58.0427 4.056C58.3134 4.41067 58.4627 4.84467 58.4907 5.358L57.0067 5.54C56.9974 5.08267 56.8434 4.72333 56.5447 4.462C56.2461 4.20067 55.8354 4.06533 55.3127 4.056C54.8554 4.056 54.4914 4.154 54.2207 4.35C53.9594 4.53667 53.8334 4.80267 53.8427 5.148C53.8427 5.40933 53.9221 5.61933 54.0807 5.778C54.2487 5.93667 54.4867 6.06267 54.7947 6.156C55.1121 6.24 55.4901 6.32867 55.9287 6.422C56.2554 6.48733 56.5727 6.57133 56.8807 6.674C57.1887 6.76733 57.4734 6.898 57.7347 7.066C57.9961 7.234 58.2014 7.45333 58.3507 7.724C58.5094 7.98533 58.5934 8.32133 58.6027 8.732C58.6121 9.264 58.4767 9.70733 58.1967 10.062C57.9167 10.4167 57.5247 10.6873 57.0207 10.874C56.5261 11.0513 55.9614 11.14 55.3267 11.14ZM62.5516 11.098C61.9449 11.098 61.4923 10.9767 61.1936 10.734C60.9043 10.482 60.7596 10.104 60.7596 9.6V4.252H59.5976V3.062H60.7596V0.933999H62.3136V3.062H63.7136V4.252H62.3136V9.096C62.3136 9.39467 62.3603 9.59533 62.4536 9.698C62.5563 9.79133 62.7476 9.838 63.0276 9.838C63.1396 9.838 63.2469 9.83333 63.3496 9.824C63.4616 9.80533 63.5596 9.77733 63.6436 9.74V10.972C63.4663 11.0093 63.2796 11.0373 63.0836 11.056C62.8969 11.084 62.7196 11.098 62.5516 11.098ZM69.5384 11.14C68.5397 11.14 67.681 10.93 66.9624 10.51C66.253 10.09 65.707 9.49267 65.3244 8.718C64.951 7.934 64.7644 6.99133 64.7644 5.89C64.7644 4.77 64.9604 3.82267 65.3524 3.048C65.7444 2.264 66.2997 1.67133 67.0184 1.27C67.737 0.859333 68.577 0.654 69.5384 0.654C70.537 0.654 71.391 0.864 72.1004 1.284C72.819 1.69467 73.3697 2.292 73.7524 3.076C74.1444 3.85067 74.3404 4.78867 74.3404 5.89C74.3404 7.01 74.1397 7.962 73.7384 8.746C73.3464 9.53 72.791 10.1273 72.0724 10.538C71.363 10.9393 70.5184 11.14 69.5384 11.14ZM69.5384 9.754C70.565 9.754 71.3444 9.418 71.8764 8.746C72.4084 8.074 72.6744 7.12667 72.6744 5.904C72.6744 4.66267 72.4084 3.71067 71.8764 3.048C71.3444 2.38533 70.565 2.04933 69.5384 2.04C68.5117 2.04 67.7324 2.38067 67.2004 3.062C66.6684 3.74333 66.4024 4.686 66.4024 5.89C66.4024 7.10333 66.6684 8.05067 67.2004 8.732C67.7324 9.41333 68.5117 9.754 69.5384 9.754ZM79.59 11.14C78.7687 11.14 78.0594 11 77.462 10.72C76.874 10.44 76.412 10.0527 76.076 9.558C75.7494 9.054 75.5767 8.466 75.558 7.794L77.126 7.612C77.154 8.34 77.3874 8.9 77.826 9.292C78.2647 9.67467 78.8667 9.86133 79.632 9.852C80.3227 9.852 80.864 9.70267 81.256 9.404C81.6574 9.096 81.858 8.69 81.858 8.186C81.858 7.794 81.7554 7.49067 81.55 7.276C81.3447 7.06133 81.06 6.898 80.696 6.786C80.3414 6.66467 79.94 6.562 79.492 6.478C78.9134 6.34733 78.4 6.20267 77.952 6.044C77.504 5.876 77.126 5.67533 76.818 5.442C76.5194 5.20867 76.2907 4.93333 76.132 4.616C75.9827 4.29867 75.908 3.92533 75.908 3.496C75.908 2.92667 76.0574 2.432 76.356 2.012C76.6547 1.592 77.0747 1.26067 77.616 1.018C78.1667 0.775333 78.8107 0.654 79.548 0.654C80.3134 0.654 80.9714 0.78 81.522 1.032C82.0727 1.27467 82.5067 1.62467 82.824 2.082C83.1507 2.53 83.342 3.06667 83.398 3.692L81.83 3.888C81.7927 3.28133 81.578 2.80533 81.186 2.46C80.794 2.11467 80.2434 1.93733 79.534 1.928C78.8994 1.928 78.4094 2.06333 78.064 2.334C77.728 2.59533 77.5647 2.94533 77.574 3.384C77.574 3.888 77.784 4.25667 78.204 4.49C78.624 4.72333 79.2494 4.92867 80.08 5.106C80.5187 5.19933 80.9434 5.31133 81.354 5.442C81.7647 5.56333 82.138 5.73133 82.474 5.946C82.81 6.16067 83.0714 6.44533 83.258 6.8C83.454 7.14533 83.552 7.584 83.552 8.116C83.552 8.72267 83.3887 9.25467 83.062 9.712C82.7354 10.1693 82.2734 10.524 81.676 10.776C81.088 11.0187 80.3927 11.14 79.59 11.14Z" fill="white"/>
</svg>
