<svg width="40" height="40" viewBox="0 0 40 40" fill="none" xmlns="http://www.w3.org/2000/svg">
<path fill-rule="evenodd" clip-rule="evenodd" d="M33.0196 0.28221C34.5471 0.574638 35.9641 1.28494 37.1131 2.33424C40.06 5.07636 40.0283 8.2687 39.9922 11.8952L39.9922 11.8959C39.9892 12.1977 39.9862 12.5024 39.9848 12.8102C39.9833 13.0798 39.9836 13.3528 39.984 13.6247V13.6253V13.6259V13.6278C39.9841 13.7444 39.9843 13.8609 39.9843 13.9768L39.9848 27.9163C39.9849 28.158 39.9864 28.4018 39.9879 28.6471V28.6473V28.6475V28.6477V28.6478C39.9967 30.1098 40.0059 31.624 39.7211 33.03C39.4208 34.5633 38.7024 35.9835 37.6449 37.1337C35.5916 39.3337 33.3134 39.8718 30.4159 39.9752C29.4629 40.0103 28.3616 40.0006 27.3099 39.9914C26.8486 39.9874 26.3968 39.9834 25.9712 39.9833L12.2075 39.9862C11.9915 39.9862 11.772 39.9871 11.5499 39.9881C10.0421 39.9946 8.41605 40.0016 6.99217 39.7132C5.48243 39.4228 4.0808 38.7252 2.93871 37.6957C-0.0937809 34.9213 -0.041207 31.489 0.0149774 27.821C0.0226073 27.3229 0.0303037 26.8204 0.0303495 26.3147L0.029695 12.1215C0.0295875 11.8681 0.027853 11.6122 0.0261071 11.3546C0.0163047 9.90812 0.00614099 8.40835 0.281526 7.01883C0.576854 5.47673 1.29045 4.04557 2.34423 2.88188C4.38122 0.67518 6.6702 0.141224 9.55148 0.0198303C10.5255 -0.00842537 11.5843 -0.000464245 12.615 0.00728596C13.0857 0.0108248 13.5505 0.0143198 13.9987 0.0143026L27.9146 0.0106898C28.1188 0.0106629 28.3256 0.0098172 28.5343 0.00896395C30.0197 0.00288981 31.5992 -0.00356877 33.0196 0.28221ZM29.8759 15.4804C28.5503 14.1507 26.4314 13.3285 24.551 13.589C22.7346 13.8014 21.195 14.6087 20.0488 16.0525C19.331 16.9581 18.8665 18.0384 18.7029 19.1827C18.6208 19.7698 18.6352 20.6684 18.6495 21.5632C18.6666 22.6286 18.6835 23.6884 18.5373 24.21C18.2869 25.1005 17.5256 25.7529 16.6075 25.8636C15.2635 26.0278 14.0057 25.0656 13.944 23.6886C13.9099 22.9282 13.9171 22.1616 13.9242 21.3972L13.9242 21.3968C13.9266 21.1445 13.9289 20.8925 13.9298 20.6409L13.9346 14.9395L9.7062 14.9392L9.70281 20.6036C9.70277 20.8297 9.70011 21.0792 9.69729 21.3433C9.68384 22.6017 9.66685 24.1919 9.91367 25.1634C10.2034 26.3022 10.7959 27.3412 11.6285 28.1702C12.8626 29.4086 14.5404 30.1021 16.2885 30.0963C16.8717 30.0946 17.3797 30.0167 17.9461 29.894C19.7807 29.3179 21.1972 28.3265 22.1048 26.5843C22.5168 25.7908 22.7641 24.9221 22.8319 24.0304C22.868 23.5977 22.8562 23.0355 22.8436 22.4331C22.8169 21.1598 22.7865 19.7068 23.1958 18.9172C24.2561 16.8699 27.7121 17.7508 27.5382 20.172C27.5487 21.5 27.5447 22.8247 27.5389 24.1475C27.538 24.3364 27.5372 24.5252 27.5363 24.7139V24.7143V24.7147V24.7157V24.7159C27.5284 26.4261 27.5206 28.1335 27.5403 29.8417L31.7799 29.8457L31.7831 23.3471C31.7833 23.1066 31.7867 22.8342 31.7902 22.5424L31.7903 22.5418C31.8064 21.2243 31.8273 19.51 31.5873 18.5324C31.3033 17.3789 30.7119 16.3241 29.8759 15.4804ZM15.2811 12.8068C14.9422 12.184 12.0938 7.03383 11.9025 6.91999C11.5644 7.50055 11.2049 8.10592 10.8395 8.7211C10.0269 10.0894 9.1854 11.5063 8.48758 12.8065L11.9374 12.8102L15.2811 12.8068Z" fill="white" fill-opacity="0.5"/>
</svg>
