<svg width="205" height="40" viewBox="0 0 205 40" fill="none" xmlns="http://www.w3.org/2000/svg">
<path d="M130.497 21.8271C131.019 24.4254 132.151 25.7423 135.046 25.8319C138.458 25.9376 142.613 26.0612 145.922 25.4243C148.188 24.6957 147.79 19.6836 147.755 17.8629C147.635 11.5663 154.393 6.79383 160.515 9.6516C162.711 10.6542 164.41 12.4989 165.228 14.7687C165.517 15.5942 165.691 16.4557 165.744 17.3288C165.826 18.5332 165.84 30.8781 165.712 31.1496C165.035 31.6459 162.339 31.4348 161.373 31.4086C161.15 31.4025 160.16 31.3831 160.021 31.1894C159.648 30.6697 160.29 18.94 159.885 17.0083C159.786 16.5368 159.467 16.0485 159.135 15.701C158.553 15.0902 157.739 14.6775 156.886 14.665C155.999 14.652 155.121 15.0616 154.496 15.6792C153.667 16.4976 153.666 17.5137 153.658 18.5949C153.515 19.6597 153.103 22.3008 153.356 23.3303C153.347 25.3058 152.598 26.9863 151.324 28.4902C149.786 30.2739 147.601 31.3722 145.252 31.5422C143.869 31.6538 141.861 31.6032 140.469 31.587C137.765 31.5554 134.201 31.8141 131.599 31.1248C124.595 29.2684 122.507 17.3557 127.159 12.3811C131.485 7.34182 141.751 8.4168 143.582 15.33C143.874 16.4327 144.613 20.8693 143.881 21.7135C143.253 21.869 140.573 21.7969 139.806 21.804C136.718 21.8328 133.581 21.7398 130.497 21.8271ZM135.482 17.9226C136.418 17.9213 137.751 17.9535 138.651 17.8789C138.459 15.0132 137.305 13.3149 134.227 13.5217C134.175 13.5252 134.124 13.5289 134.072 13.533C133.02 13.6528 132.321 13.9853 131.684 14.8321C131.181 15.5024 130.238 17.0453 130.885 17.7876C131.526 18.0597 134.58 17.9169 135.482 17.9226Z" fill="white" fill-opacity="0.5"/>
<path d="M37.2348 9.12754C39.3448 9.01258 41.0548 9.14081 42.9238 10.196C46.1048 11.7369 47.9909 15.9033 47.6532 19.3571C47.4802 21.1259 47.9459 30.4844 47.4443 31.4149C46.8767 31.7178 42.6974 31.5748 41.8171 31.5455C41.694 30.6283 41.7434 28.6255 41.7448 27.6507L41.7576 20.7676C41.7596 19.8543 41.824 17.8355 41.5669 17.0316C41.3141 16.2655 40.7716 15.6286 40.0552 15.2566C39.2476 14.84 38.2163 14.8478 37.3497 15.1315C34.2455 16.3086 35.6248 21.1677 35.2719 23.7228C34.7158 27.75 32.5064 30.3739 28.6516 31.6336C28.1009 31.8735 26.748 31.9746 26.1404 31.9613C23.7135 31.9119 21.4085 30.8902 19.7431 29.1261C18.6375 27.989 17.8536 26.5793 17.4715 25.0408C17.045 23.3635 17.1622 20.5569 17.1627 18.7509C17.1505 16.1957 17.1666 13.6404 17.2107 11.0856C18.7666 10.9357 21.3993 10.9906 23.0016 11.0259C23.1284 12.0945 23.0772 13.5624 23.0723 14.6636L23.0538 20.2499C23.051 22.1825 22.7474 24.4383 24.536 25.6503C25.173 26.0749 25.9278 26.1935 26.6841 26.0813C30.9959 25.4414 29.0101 19.4996 29.6894 16.441C30.5734 12.4605 33.284 9.81521 37.2348 9.12754Z" fill="white" fill-opacity="0.5"/>
<path d="M97.0791 9.54809C97.5106 9.60491 97.452 9.53795 97.7698 9.76998C97.9311 10.0362 97.9188 10.2157 97.9192 10.5204L97.909 18.5975C97.9155 22.5025 98.3396 26.1492 95.2924 29.196C93.6009 30.9041 91.3029 31.8759 88.8979 31.9C85.0684 31.9003 81.6955 29.5738 80.3363 25.9958C79.6657 24.2305 79.7739 22.6222 79.7745 20.7776L79.788 9.58401C81.3613 9.57659 82.948 9.52282 84.5199 9.56019C84.772 9.56618 85.1826 9.5761 85.3509 9.78741C85.9755 10.5719 85.2098 21.2106 85.6793 23.3554C85.8369 24.0751 86.1671 24.7459 86.6799 25.2802C87.1724 25.7932 87.7825 26.0437 88.4909 26.0562C89.3437 26.0713 90.4789 25.7194 91.098 25.1185C91.5398 24.6896 91.7876 24.0979 91.9063 23.5023C92.1818 22.1195 92.0728 20.6243 92.0875 19.2197C92.1208 16.0195 92.0538 12.8176 92.1138 9.61814C93.5436 9.51134 95.5552 9.59657 97.0791 9.54809Z" fill="white" fill-opacity="0.5"/>
<path d="M60.316 9.23985C61.6204 9.0242 66.7134 9.66452 67.5637 10.7059C67.8411 11.3707 66.7909 13.2393 66.6338 14.0519C66.6134 14.2067 66.1826 14.9671 66.0367 14.9303C63.0963 14.188 58.9679 12.6596 57.5219 16.6177C56.5315 19.329 56.1134 25.5842 59.6117 26.814C62.1403 27.703 64.7894 26.5118 67.0821 25.4841C67.1908 26.3169 67.1874 26.7825 67.1763 27.6086C67.1968 28.5077 67.3365 29.674 66.7623 30.3991C65.8843 31.3265 63.7587 31.6269 62.5577 31.753C56.4298 32.3719 51.6022 29.8152 51.0813 23.2659C50.5053 16.0244 51.9851 10.0544 60.316 9.23985Z" fill="white" fill-opacity="0.5"/>
<path d="M174.008 5.71946C174.49 5.6975 174.972 5.67797 175.454 5.66087C175.949 5.64394 176.784 5.56114 177.166 5.92813C177.607 6.35264 177.375 9.45667 177.387 10.1809C179.306 10.3 181.32 10.1702 183.28 10.2695C183.431 11.1877 183.426 13.7536 183.251 14.6445C181.607 14.7649 179.243 14.6026 177.386 14.6907C177.373 16.7296 177.119 24.0109 177.53 25.5113C177.69 26.0941 178.015 26.6347 178.555 26.9345C179.903 27.6823 182.075 26.9806 183.454 26.5823C183.618 27.7524 183.565 29.2817 183.56 30.4937C183.534 30.6675 183.452 30.7823 183.363 30.9315C182.721 31.3915 181.211 31.6131 180.42 31.7462C178.579 32.0561 175.557 31.9508 173.987 30.762C171.329 28.7516 171.732 25.6001 171.657 22.8397C171.603 20.8282 171.846 16.4349 171.554 14.685C170.803 14.6157 169.752 14.6218 168.977 14.6035C168.847 13.7575 168.884 13.0104 168.986 12.1676C170.012 11.3949 171.554 10.7893 172.19 9.71733C172.858 8.592 173.037 7.05844 173.681 5.90373C173.681 5.90373 173.98 5.73509 174.008 5.71946Z" fill="white" fill-opacity="0.5"/>
<path d="M70.6046 1.41152C72.2646 1.34574 74.6449 1.33538 76.2965 1.39981C76.4133 2.35056 76.3529 4.44056 76.3516 5.46135L76.3554 25.7289C76.3555 26.8039 76.4333 30.8124 76.2356 31.585C75.2663 31.5909 71.4873 31.685 70.7549 31.4651C70.3819 30.8806 70.5652 4.46181 70.6046 1.41152Z" fill="white" fill-opacity="0.5"/>
<path d="M153.658 18.5949C153.777 19.2557 153.858 22.9041 153.584 23.4007L153.356 23.3303C153.103 22.3008 153.515 19.6597 153.658 18.5949Z" fill="white" fill-opacity="0.5"/>
<path d="M191.653 22.326C192.034 28.4965 197.99 27.9755 202.371 26.3995C202.638 26.3039 203.699 25.7939 203.89 25.8507C204.15 26.3718 204.301 30.0768 203.727 30.3608C200.545 31.9201 197.298 31.8734 193.854 31.4593C184.529 30.3382 183.246 16.1768 189.934 11.327C193.669 8.6194 201.565 9.20938 203.917 13.8313C204.281 14.5465 204.545 15.4922 205 16.1426V22.1516L196.659 22.1538C195.41 22.1541 192.782 22.0785 191.653 22.326ZM191.828 18.2343C193.252 18.3776 195.01 18.3311 196.467 18.3257C197.075 18.3345 197.693 18.3486 198.296 18.3443C198.921 18.3399 199.868 18.454 199.829 17.5502C199.79 16.6614 199.245 15.6087 198.623 14.99C197.894 14.2625 196.904 13.8589 195.874 13.8703C195.598 13.8724 195.31 13.8986 195.034 13.9275C192.688 14.5064 192.004 15.9388 191.828 18.2343Z" fill="white" fill-opacity="0.5"/>
<path d="M101.468 9.70618C102.323 9.65193 107.146 9.48417 107.588 9.84998C107.947 10.4205 108.127 11.0618 108.338 11.6973C109.297 14.5944 110.21 17.5082 111.224 20.3868C111.672 21.6621 111.958 23.264 112.554 24.4528C112.774 22.9866 116.504 10.498 117.217 9.7738C117.687 9.59349 122.508 9.59138 122.991 9.80205C123.007 9.80893 123.022 9.81614 123.037 9.82368C123.098 10.0498 122.867 10.728 122.777 10.9683C120.022 18.3414 117.276 25.7174 114.548 33.1001C114.13 34.1099 113.658 35.0982 113.13 36.0554C112.272 37.6141 110.944 38.599 109.357 39.3317C109.02 39.487 108.502 39.7259 108.266 40H102.723C102.46 38.4562 102.558 36.964 102.604 35.4057C103.362 35.4048 104.301 35.3615 105.03 35.4156C107.42 35.5926 109.373 32.9101 109.487 30.7678C109.527 30.0331 108.435 27.5385 108.121 26.7419L103.391 14.8737C102.867 13.5453 101.697 10.9413 101.468 9.70618Z" fill="white" fill-opacity="0.5"/>
<path d="M2.20799 11.0023C2.37694 8.52312 2.34183 6.33929 4.35482 4.51834C6.93724 2.18228 12.0449 2.56876 15.4897 2.63744C15.1225 3.91886 13.383 6.97223 12.5302 7.98025C10.7412 8.08817 8.66115 7.81964 8.24014 10.0872C8.21418 10.227 8.18642 10.4084 8.19719 10.5495C8.20502 10.6435 8.22392 10.7363 8.2535 10.8259C8.71887 11.1798 10.7976 10.9704 11.585 10.9951C11.728 12.2241 11.7712 14.9433 11.5848 16.1792C10.5066 16.1861 9.19552 16.161 8.1365 16.2192C8.05754 19.683 8.14022 23.1699 8.10662 26.6317C8.09365 27.9686 8.18492 30.3272 8.03977 31.5592C7.17994 31.578 3.09923 31.7083 2.55305 31.4048C2.16375 30.3792 2.38134 18.4439 2.30887 16.204L0 16.1724V11.0045L2.20799 11.0023Z" fill="white" fill-opacity="0.5"/>
<path d="M20.0133 0H20.3133C21.7493 2.23017 23.0946 4.81467 24.3767 7.14884C24.4722 7.32276 24.5476 7.86279 24.575 8.08082C21.7014 8.0886 18.5165 8.17086 15.663 8.07794C16.1375 6.51699 18.1934 3.53772 18.9888 2.00662C19.326 1.35782 19.8241 0.755347 20.0133 0Z" fill="white" fill-opacity="0.5"/>
</svg>
