<svg width="123" height="38" viewBox="0 0 123 38" fill="none" xmlns="http://www.w3.org/2000/svg">
<path d="M45.9044 13.2555C47.9516 15.2621 48.9759 18.1548 48.9759 21.9348V38.0001H44.5171V22.5814C44.5171 19.8628 43.8397 17.7817 42.4859 16.3393C41.1313 14.8967 39.2819 14.1755 36.9373 14.1755C34.5594 14.1755 32.6684 14.9217 31.2651 16.4138C29.8605 17.906 29.1592 20.0782 29.1592 22.9295V38.0001H24.6512V10.7436H29.1592V14.6234C30.0511 13.2307 31.2651 12.1536 32.8008 11.3903C34.3366 10.6278 36.0285 10.2463 37.8785 10.2463C41.1808 10.2463 43.8559 11.2497 45.9044 13.2555Z" fill="white" fill-opacity="0.5"/>
<path d="M57.0375 36.9308C55.3856 36.2181 54.0814 35.2233 53.1239 33.9464C52.1654 32.6703 51.6376 31.203 51.5385 29.5447H56.1954C56.3271 30.9046 56.9633 32.0152 58.1028 32.8771C59.2421 33.7398 60.736 34.1704 62.5861 34.1704C64.3029 34.1704 65.6577 33.7896 66.6485 33.0263C67.6393 32.264 68.1347 31.3025 68.1347 30.1416C68.1347 28.9478 67.6062 28.061 66.5496 27.4804C65.492 26.9008 63.8571 26.3287 61.6449 25.7645C59.63 25.2344 57.9866 24.6952 56.7155 24.1481C55.4438 23.6009 54.3537 22.7888 53.4459 21.7109C52.5372 20.6337 52.0833 19.2161 52.0833 17.4583C52.0833 16.0655 52.496 14.7895 53.3221 13.6286C54.1472 12.4682 55.3198 11.548 56.8393 10.8679C58.358 10.1886 60.0921 9.84836 62.041 9.84836C65.046 9.84836 67.4736 10.6114 69.3236 12.1362C71.1728 13.662 72.164 15.7508 72.296 18.4033H67.788C67.6889 16.978 67.1192 15.834 66.0787 14.9714C65.0385 14.1094 63.6426 13.6781 61.8927 13.6781C60.274 13.6781 58.9859 14.0264 58.0284 14.7226C57.0701 15.419 56.5915 16.3314 56.5915 17.4583C56.5915 18.3536 56.8804 19.0918 57.4585 19.6716C58.0362 20.2522 58.763 20.7162 59.6386 21.0643C60.513 21.4126 61.727 21.8026 63.2798 22.2331C65.2279 22.7639 66.8133 23.2862 68.0356 23.7998C69.2572 24.3144 70.3058 25.0854 71.1814 26.1126C72.0563 27.141 72.5103 28.4838 72.5438 30.1416C72.5438 31.6337 72.1303 32.9766 71.3054 34.1704C70.4795 35.3641 69.3152 36.3013 67.8125 36.9804C66.3094 37.6599 64.584 38.0001 62.6357 38.0001C60.5548 38.0001 58.6887 37.6435 57.0375 36.9308Z" fill="white" fill-opacity="0.5"/>
<path d="M99.4317 10.3457V37.6022H94.9235V33.5734C94.0639 34.9662 92.8676 36.0526 91.3318 36.8313C89.796 37.6101 88.1032 38.0001 86.2539 38.0001C84.1395 38.0001 82.2409 37.5611 80.5565 36.682C78.872 35.804 77.5425 34.4858 76.5683 32.7279C75.5938 30.9707 75.1072 28.8321 75.1072 26.3118V10.3457H79.5658V25.7149C79.5658 28.4008 80.2421 30.4648 81.5972 31.9072C82.9507 33.3496 84.7999 34.0708 87.1454 34.0708C89.5559 34.0708 91.4554 33.3248 92.8425 31.8327C94.2296 30.3405 94.9235 28.1691 94.9235 25.317V10.3457H99.4317Z" fill="white" fill-opacity="0.5"/>
<path d="M107.494 36.9308C105.842 36.2181 104.538 35.2233 103.58 33.9464C102.622 32.6703 102.094 31.203 101.995 29.5447H106.652C106.783 30.9046 107.42 32.0152 108.559 32.8771C109.699 33.7398 111.193 34.1704 113.043 34.1704C114.76 34.1704 116.114 33.7896 117.105 33.0263C118.096 32.264 118.592 31.3025 118.592 30.1416C118.592 28.9478 118.063 28.061 117.006 27.4804C115.948 26.9008 114.314 26.3287 112.101 25.7645C110.087 25.2344 108.443 24.6952 107.172 24.1481C105.9 23.6009 104.811 22.7888 103.902 21.7109C102.993 20.6337 102.54 19.2161 102.54 17.4583C102.54 16.0655 102.952 14.7895 103.778 13.6286C104.604 12.4682 105.777 11.548 107.296 10.8679C108.815 10.1886 110.549 9.84836 112.498 9.84836C115.503 9.84836 117.93 10.6114 119.78 12.1362C121.629 13.662 122.62 15.7508 122.752 18.4033H118.245C118.145 16.978 117.576 15.834 116.535 14.9714C115.495 14.1094 114.099 13.6781 112.349 13.6781C110.73 13.6781 109.442 14.0264 108.485 14.7226C107.527 15.419 107.048 16.3314 107.048 17.4583C107.048 18.3536 107.337 19.0918 107.915 19.6716C108.493 20.2522 109.22 20.7162 110.095 21.0643C110.97 21.4126 112.184 21.8026 113.736 22.2331C115.685 22.7639 117.27 23.2862 118.492 23.7998C119.714 24.3144 120.762 25.0854 121.638 26.1126C122.513 27.141 122.967 28.4838 123 30.1416C123 31.6337 122.587 32.9766 121.762 34.1704C120.936 35.3641 119.772 36.3013 118.269 36.9804C116.766 37.6599 115.041 38.0001 113.092 38.0001C111.012 38.0001 109.145 37.6435 107.494 36.9308Z" fill="white" fill-opacity="0.5"/>
<path d="M16.6489 15.2833H8.02544V38H3.51721V15.2833H0V10.7435H3.51721V8.80355C3.51721 5.75318 4.30137 3.52353 5.87045 2.11381C7.43876 0.704861 9.9577 0 13.4254 0V3.7802C11.4439 3.7802 10.0482 4.17018 9.23936 4.94881C8.42957 5.7284 8.02544 7.01306 8.02544 8.80355V10.7435H16.6489V15.2833Z" fill="white" fill-opacity="0.5"/>
<path d="M22.0893 16.3124H17.5799V38H22.0893V16.3124Z" fill="white" fill-opacity="0.5"/>
<path d="M22.0893 10.8614H17.5799V15.4012H22.0893V10.8614Z" fill="white" fill-opacity="0.5"/>
</svg>
