<svg width="134" height="40" viewBox="0 0 134 40" fill="none" xmlns="http://www.w3.org/2000/svg">
<path d="M11.633 4.41983C11.8936 4.12998 12.0218 3.73118 12.0218 3.22361C12.0218 2.72152 11.8936 2.32276 11.633 2.03093C11.3749 1.737 11.031 1.59109 10.6021 1.59109C10.173 1.59109 9.82752 1.737 9.56521 2.03093C9.30304 2.32276 9.17295 2.72152 9.17295 3.22361C9.17295 3.73118 9.30304 4.12998 9.56113 4.41983C9.81957 4.71161 10.1671 4.85558 10.6021 4.85558C11.031 4.85558 11.3749 4.71161 11.633 4.41983ZM8.31099 5.55573C7.71641 4.96061 7.41761 4.18227 7.41761 3.22361C7.41761 2.26245 7.71641 1.48606 8.31099 0.892929C8.90889 0.297809 9.67198 0 10.6021 0C11.5266 0 12.2877 0.297809 12.8837 0.892929C13.4798 1.48606 13.7769 2.26245 13.7769 3.22361C13.7769 4.18227 13.4798 4.96061 12.8837 5.55573C12.2877 6.14941 11.5266 6.44667 10.6021 6.44667C9.67198 6.44667 8.90889 6.14941 8.31099 5.55573Z" fill="white" fill-opacity="0.5"/>
<path d="M16.9673 2.41983V6.36306H15.3806V0.0836682H17.5286L19.6681 4.04438V0.0836682H21.2547V6.36306H19.1401L16.9673 2.41983Z" fill="white" fill-opacity="0.5"/>
<path d="M29.9946 1.50748H28.1073V6.36306H26.4356V1.50748H24.546V0.0836682H29.9946V1.50748Z" fill="white" fill-opacity="0.5"/>
<path d="M35.1462 4.41983C35.4046 4.12998 35.5344 3.73118 35.5344 3.22361C35.5344 2.72152 35.4046 2.32276 35.1462 2.03093C34.8881 1.737 34.5421 1.59109 34.1151 1.59109C33.6862 1.59109 33.3401 1.737 33.0782 2.03093C32.8162 2.32276 32.686 2.72152 32.686 3.22361C32.686 3.73118 32.8143 4.12998 33.0743 4.41983C33.3328 4.71161 33.6801 4.85558 34.1151 4.85558C34.5421 4.85558 34.8881 4.71161 35.1462 4.41983ZM31.824 5.55573C31.2275 4.96061 30.9308 4.18227 30.9308 3.22361C30.9308 2.26245 31.2275 1.48606 31.824 0.892929C32.4201 0.297809 33.1831 0 34.1151 0C35.0392 0 35.7988 0.297809 36.3947 0.892929C36.9909 1.48606 37.2901 2.26245 37.2901 3.22361C37.2901 4.18227 36.9909 4.96061 36.3947 5.55573C35.7988 6.14941 35.0392 6.44667 34.1151 6.44667C33.1831 6.44667 32.4201 6.14941 31.824 5.55573Z" fill="white" fill-opacity="0.5"/>
<path d="M42.2276 4.43328C42.4841 4.15135 42.6106 3.74851 42.6106 3.22361C42.6106 2.64393 42.4882 2.22565 42.2397 1.97257C41.9931 1.71754 41.6024 1.59109 41.0744 1.59109H40.3969V4.85559H41.0744C41.5871 4.85559 41.9717 4.7157 42.2276 4.43328ZM41.0142 0.0836682C42.1074 0.0836682 42.9385 0.371567 43.5093 0.945222C44.0805 1.52147 44.3658 2.27993 44.3658 3.22361C44.3658 3.64732 44.3036 4.04244 44.1793 4.40838C44.0531 4.77386 43.8626 5.10653 43.6067 5.40439C43.3502 5.70375 43.0067 5.93721 42.5737 6.10857C42.1422 6.27745 41.6416 6.36306 41.0744 6.36306H38.7267V0.0836682H41.0142Z" fill="white" fill-opacity="0.5"/>
<path d="M48.3524 2.14398L47.6918 3.89244H49.0126L48.3524 2.14398ZM49.5132 5.23298H47.1893L46.7636 6.36306H45.1347L47.5835 0.0836682H49.187L51.6358 6.36306H49.9387L49.5132 5.23298Z" fill="white" fill-opacity="0.5"/>
<path d="M66.0689 4.41983C66.3294 4.12998 66.4592 3.73118 66.4592 3.22361C66.4592 2.72152 66.3294 2.32276 66.0689 2.03093C65.8109 1.737 65.4669 1.59109 65.038 1.59109C64.609 1.59109 64.263 1.737 64.001 2.03093C63.739 2.32276 63.6088 2.72152 63.6088 3.22361C63.6088 3.73118 63.7391 4.12998 63.997 4.41983C64.2575 4.71161 64.603 4.85558 65.038 4.85558C65.4669 4.85558 65.8109 4.71161 66.0689 4.41983ZM62.7483 5.55573C62.1523 4.96061 61.8536 4.18227 61.8536 3.22361C61.8536 2.26245 62.1523 1.48606 62.7483 0.892929C63.3449 0.297809 64.1079 0 65.038 0C65.9621 0 66.7236 0.297809 67.3196 0.892929C67.9156 1.48606 68.2129 2.26245 68.2129 3.22361C68.2129 4.18227 67.9156 4.96061 67.3196 5.55573C66.7236 6.14941 65.9621 6.44667 65.038 6.44667C64.1079 6.44667 63.3449 6.14941 62.7483 5.55573Z" fill="white" fill-opacity="0.5"/>
<path d="M71.2382 2.41983V6.36306H69.6495V0.0836682H71.7975L73.937 4.04438V0.0836682H75.5237V6.36306H73.411L71.2382 2.41983Z" fill="white" fill-opacity="0.5"/>
<path d="M79.0073 3.9761V6.36306H77.3371V0.0836682H82.0675V1.59109H79.0073V2.6379H81.4809V3.9761H79.0073Z" fill="white" fill-opacity="0.5"/>
<path d="M83.6462 6.36306H85.316V0.0836682H83.6462V6.36306Z" fill="white" fill-opacity="0.5"/>
<path d="M89.844 2.14398L89.1859 3.89244H90.5042L89.844 2.14398ZM91.0072 5.23298H88.6828L88.2578 6.36306H86.6288L89.077 0.0836682H90.6811L93.1298 6.36306H91.4327L91.0072 5.23298Z" fill="white" fill-opacity="0.5"/>
<path d="M96.0289 2.41983V6.36306H94.4402V0.0836682H96.5881L98.7276 4.04438V0.0836682H100.314V6.36306H98.2017L96.0289 2.41983Z" fill="white" fill-opacity="0.5"/>
<path d="M101.893 6.36306V5.10653L104.584 1.54831H101.893V0.0836682H106.656V1.25648L103.924 4.89837H106.656V6.36306H101.893Z" fill="white" fill-opacity="0.5"/>
<path d="M111.252 2.14398L110.592 3.89244H111.913L111.252 2.14398ZM112.414 5.23298H110.091L109.664 6.36306H108.035L110.483 0.0836682H112.087L114.536 6.36306H112.841L112.414 5.23298Z" fill="white" fill-opacity="0.5"/>
<path d="M117.66 0.0836682H122.433V1.54831H119.332V2.47859H121.847V3.81873H119.332V4.85559H122.433V6.36306H117.66V0.0836682Z" fill="white" fill-opacity="0.5"/>
<path d="M4.4892 4.14746C4.39832 4.30523 4.28745 4.4393 4.15172 4.55035C3.90123 4.75444 3.58646 4.85558 3.20782 4.85558C2.77286 4.85558 2.42528 4.71161 2.16683 4.41983C1.90683 4.12998 1.77867 3.73118 1.77867 3.22361C1.77867 2.72152 1.90877 2.32276 2.17091 2.03093C2.43324 1.737 2.77868 1.59109 3.20782 1.59109C3.58064 1.59109 3.89133 1.69617 4.13774 1.90428C4.26007 2.00742 4.36104 2.12998 4.44454 2.27196H6.29914L6.27389 2.17685C6.09543 1.50747 5.74399 0.976546 5.21756 0.585759C4.68959 0.194723 4.02142 0 3.20782 0C2.26625 0 1.50119 0.295868 0.912637 0.886904C0.324083 1.48058 0.0308743 2.25857 0.0308743 3.22361C0.0308743 4.18835 0.324083 4.96664 0.912637 5.55982C1.50119 6.1514 2.26625 6.44667 3.20782 6.44667C4.0156 6.44667 4.67969 6.25449 5.20414 5.86913C5.72803 5.48412 6.07798 4.94527 6.25639 4.25254L6.27389 4.14746H4.4892Z" fill="white" fill-opacity="0.5"/>
<path d="M58.9137 4.14746C58.8223 4.30523 58.7094 4.4393 58.5757 4.55035C58.3232 4.75444 58.0105 4.85558 57.6302 4.85558C57.1968 4.85558 56.8493 4.71161 56.5893 4.41983C56.3308 4.12998 56.2011 3.73118 56.2011 3.22361C56.2011 2.72152 56.3328 2.32276 56.5933 2.03093C56.8553 1.737 57.2008 1.59109 57.6302 1.59109C58.0051 1.59109 58.3152 1.69617 58.5623 1.90428C58.6846 2.00742 58.7855 2.12998 58.869 2.27196H60.7232L60.6978 2.17685C60.5194 1.50747 60.1659 0.976546 59.64 0.585759C59.1136 0.194723 58.4435 0 57.6302 0C56.6882 0 55.9252 0.295868 55.3366 0.886904C54.7486 1.48058 54.4553 2.25857 54.4553 3.22361C54.4553 4.18835 54.7486 4.96664 55.3366 5.55982C55.9252 6.1514 56.6882 6.44667 57.6302 6.44667C58.438 6.44667 59.1036 6.25449 59.6281 5.86913C60.1525 5.48412 60.502 4.94527 60.6804 4.25254L60.6978 4.14746H58.9137Z" fill="white" fill-opacity="0.5"/>
<path d="M127.981 2.99408C127.734 2.86743 127.47 2.75658 127.186 2.66335C126.901 2.56768 126.637 2.49607 126.392 2.44532C126.148 2.39492 125.942 2.31674 125.779 2.21011C125.614 2.10508 125.532 1.96654 125.532 1.79926C125.532 1.64403 125.592 1.52341 125.714 1.43974C125.839 1.35608 126.006 1.31524 126.217 1.31524C126.472 1.31524 126.676 1.38705 126.821 1.53078C126.874 1.58372 126.913 1.64597 126.948 1.71365H128.676C128.593 1.24114 128.375 0.86006 128.021 0.570169C127.559 0.190637 126.957 0 126.217 0C125.497 0 124.923 0.169222 124.492 0.505975C124.06 0.844073 123.843 1.29736 123.843 1.86753C123.843 2.21962 123.905 2.51942 124.027 2.77191C124.15 3.02286 124.307 3.2137 124.499 3.34403C124.691 3.47615 124.907 3.58506 125.142 3.67087C125.379 3.75842 125.615 3.8267 125.849 3.87496C126.084 3.92784 126.295 3.97804 126.487 4.03093C126.68 4.08307 126.837 4.15937 126.961 4.25857C127.083 4.35369 127.144 4.48208 127.144 4.6375C127.144 4.96664 126.899 5.13203 126.408 5.13203C125.853 5.13203 125.519 4.90638 125.4 4.45872H123.705C123.779 5.02481 124.01 5.48004 124.404 5.81873C124.887 6.23656 125.553 6.44667 126.4 6.44667C127.196 6.44667 127.802 6.26983 128.218 5.91579C128.633 5.55982 128.841 5.11998 128.841 4.59667C128.841 4.20563 128.759 3.87102 128.594 3.59517C128.429 3.32072 128.225 3.11858 127.981 2.99408Z" fill="white" fill-opacity="0.5"/>
<path d="M13.9907 22.2898L6.87175 22.2958V12.8761L0 12.8879V34.3725C0 36.7262 0.359423 37.4518 2.99054 37.4518L6.87388 37.4497C6.87388 35.6271 6.87175 27.9875 6.87175 27.9875L13.9907 27.982V33.8901C13.9907 36.4054 14.4719 37.4557 17.4624 37.4557L20.8547 37.4537C20.8547 34.9328 20.8605 12.884 20.8605 12.884L13.9907 12.878V22.2898Z" fill="white" fill-opacity="0.5"/>
<path d="M108.38 18.1754H119.829C118.712 19.5797 109.102 31.6564 109.102 31.6564C108.463 32.4851 108.376 33.2654 108.376 33.9189V33.9616C108.376 36.4752 108.858 37.5275 111.844 37.5275L128.827 37.524V32.1021H119.326C118.679 32.1021 118.429 32.1062 118.244 31.6838C118.093 31.25 118.379 30.8919 118.885 30.2639L128.827 17.7007V12.884L108.38 12.8799V18.1754Z" fill="white" fill-opacity="0.5"/>
<path d="M133.159 36.5279C132.833 36.8587 132.447 37.0219 131.992 37.0219C131.526 37.0219 131.142 36.8587 130.814 36.5279C130.493 36.2007 130.328 35.8004 130.328 35.3312C130.328 34.8801 130.488 34.489 130.806 34.1604C131.136 33.8257 131.526 33.6564 131.992 33.6564C132.447 33.6564 132.833 33.8257 133.163 34.1604C133.484 34.4931 133.641 34.8839 133.641 35.3312C133.641 35.7982 133.484 36.1933 133.159 36.5279ZM133.41 33.9093C133.016 33.5144 132.54 33.3142 131.985 33.3142C131.456 33.3142 130.993 33.493 130.596 33.8607C130.185 34.2576 129.973 34.746 129.973 35.3391C129.973 35.9013 130.165 36.3855 130.554 36.7729C130.944 37.1619 131.42 37.3545 131.985 37.3545C132.54 37.3545 133.002 37.1639 133.395 36.7865C133.802 36.3955 134 35.9109 134 35.3391C134 34.7789 133.806 34.2964 133.41 33.9093Z" fill="white" fill-opacity="0.5"/>
<path d="M132.237 35.1779C132.167 35.2341 132.054 35.2635 131.915 35.2635H131.691V34.6096H131.833C131.981 34.6096 132.092 34.623 132.175 34.6544C132.293 34.7013 132.354 34.7849 132.354 34.9094C132.354 35.032 132.315 35.1195 132.237 35.1779ZM132.897 36.3291V36.0628C132.897 35.8333 132.829 35.6619 132.699 35.5568C132.628 35.4985 132.525 35.4557 132.386 35.4288C132.54 35.4129 132.666 35.3666 132.767 35.2769C132.878 35.1973 132.924 35.0553 132.924 34.872C132.924 34.6291 132.823 34.4482 132.628 34.3412C132.507 34.2809 132.367 34.2381 132.193 34.2266C132.157 34.2266 132.004 34.2206 131.724 34.2206H131.107V36.4577H131.691V35.6619H131.816L131.938 35.6759C132.033 35.6759 132.097 35.6893 132.14 35.7047C132.221 35.7381 132.274 35.7944 132.303 35.8741C132.321 35.9208 132.33 36.0105 132.342 36.1465C132.354 36.277 132.365 36.3855 132.381 36.4577H132.934L132.917 36.3955C132.907 36.37 132.905 36.3527 132.897 36.3291Z" fill="white" fill-opacity="0.5"/>
<path d="M23.2819 32.4951C23.2819 35.3841 23.2879 37.3874 26.3152 37.3874C29.0374 37.3874 39.9834 37.3934 39.9834 37.3934V32.1001H31.4432C30.8955 32.1001 30.5325 31.999 30.3327 31.7928C30.0608 31.5125 30.0022 30.9662 30.0022 30.2579C30.0022 30.005 30.0354 28.124 30.0354 27.9916H37.1853V22.2958H30.0354V18.1812H39.9834V12.8821L23.2819 12.884V32.4951Z" fill="white" fill-opacity="0.5"/>
<path d="M106.39 18.1812L106.388 12.8821L89.6889 12.884V32.4951C89.6889 35.3841 89.6949 37.3874 92.7197 37.3874C95.4443 37.3874 106.388 37.3934 106.388 37.3934V32.1001H97.8502C97.3024 32.1001 96.9415 31.999 96.7392 31.7928C96.4673 31.5125 96.4091 30.9662 96.4091 30.2579C96.4091 30.005 96.4424 28.1221 96.4424 27.9896H103.592V22.2958H96.4424V18.1812H106.39Z" fill="white" fill-opacity="0.5"/>
<path d="M74.6399 32.6898C72.5699 32.6898 72.3353 31.1603 72.3353 28.9621V17.9538H74.5896C76.5606 17.9538 81.2343 19.1832 81.2343 25.3905C81.2343 31.9543 76.7351 32.6898 74.6399 32.6898ZM76.0556 12.8994L65.5818 12.8939L65.5699 32.0031C65.5699 35.0259 65.9099 37.3487 70.164 37.4851C71.3933 37.524 74.0751 37.5607 76.0476 37.4886C85.7355 37.4886 87.7721 31.1101 87.7721 25.3441C87.7721 13.3526 78.803 12.8994 76.0556 12.8994Z" fill="white" fill-opacity="0.5"/>
<path d="M58.7582 28.9407C59.1543 28.8184 59.5659 28.6722 60.0029 28.4816C61.2342 27.7579 63.7465 26.2096 63.7465 21.6305C63.7465 18.8426 62.9313 16.6539 61.3252 15.1309C58.7507 12.6932 55.1055 12.8646 54.9504 12.8745L54.9778 12.8725L42.0607 12.8799V33.8237C42.0607 36.3392 42.5405 37.3915 45.5289 37.3915L48.8122 37.3874V17.9382H53.1251C53.1251 17.9382 57.0377 17.9826 57.0377 21.9025C57.0377 25.8243 53.6162 25.7371 53.6162 25.7371L50.1485 25.778C50.0356 25.7758 49.9253 25.762 49.8104 25.762C49.8104 33.6255 56.1758 40 64.0264 40C64.0264 35.5339 61.9699 31.5514 58.7582 28.9407Z" fill="white" fill-opacity="0.5"/>
</svg>
