<svg width="51" height="40" viewBox="0 0 51 40" fill="none" xmlns="http://www.w3.org/2000/svg">
<path fill-rule="evenodd" clip-rule="evenodd" d="M0 5.88237L7.04683 0L12.9197 4.70613L18.5572 0L24.195 4.47072L29.5975 0L35.4699 4.70613V16.4705L27.718 22.5879V7.76444C27.718 7.76444 27.4834 5.64697 24.1946 5.64697V39.7642H16.4431V7.76444C16.4431 7.76444 16.4431 5.64697 13.1547 5.64697V39.7642H5.1678V9.41187C5.1678 9.41187 5.40244 5.17655 0 5.88237Z" fill="white" fill-opacity="0.5"/>
<path fill-rule="evenodd" clip-rule="evenodd" d="M40.1682 14.353L27.7185 24.0003V33.4118L35.7054 40L46.041 32.0005L45.5714 31.5297C45.5714 31.5297 42.7527 34.353 40.4036 33.883C36.6451 33.4122 35.4704 31.0597 35.4704 27.5302V19.5296C35.4704 19.5296 38.2895 22.5883 40.4036 22.5883C42.2826 22.5883 44.162 20.9416 46.041 19.0592L40.1682 14.353Z" fill="white" fill-opacity="0.5"/>
<path fill-rule="evenodd" clip-rule="evenodd" d="M46.0404 35.2938C46.0404 35.2938 47.2151 35.2938 47.6848 35.2938C48.3898 35.2938 48.8591 35.5292 48.8591 36.2358C48.8591 37.1771 48.3898 37.1771 48.3898 37.1771C48.8591 37.8825 48.8591 38.8237 48.8591 38.8237H48.1544C48.1544 37.4125 47.4494 37.6471 47.4494 37.6471H46.5097V38.8237H46.04L46.0404 35.2938ZM46.51 35.7646V37.1767C46.51 37.1767 47.4498 37.1767 47.6848 37.1767C47.9194 37.1767 48.1544 36.9413 48.1544 36.4705C48.1544 36.0004 47.9194 35.765 47.6848 35.765C47.2151 35.7646 46.51 35.7646 46.51 35.7646Z" fill="white" fill-opacity="0.5"/>
</svg>
