<svg width="18" height="18" viewBox="0 0 18 18" fill="none" xmlns="http://www.w3.org/2000/svg">
<path d="M17.2666 8.93333C17.2666 13.5357 13.5357 17.2667 8.93331 17.2667M17.2666 8.93333C17.2666 4.33096 13.5357 0.599998 8.93331 0.599998M17.2666 8.93333H0.599976M8.93331 17.2667C4.33094 17.2667 0.599976 13.5357 0.599976 8.93333M8.93331 17.2667C11.0177 14.9847 12.2023 12.0233 12.2666 8.93333C12.2023 5.84336 11.0177 2.88196 8.93331 0.599998M8.93331 17.2667C6.84891 14.9847 5.66435 12.0233 5.59998 8.93333C5.66435 5.84336 6.84891 2.88196 8.93331 0.599998M0.599976 8.93333C0.599976 4.33096 4.33094 0.599998 8.93331 0.599998" stroke="white" stroke-width="1.2" stroke-linecap="round" stroke-linejoin="round"/>
</svg>
